# WaveFront *.obj file (generated by CINEMA 4D)

mtllib ./obstacle2.mtl

v -1 2 0
v -1 4 0
v 1 2 0
v 1 4 0
v 1 2 -0.20000000298023
v 1 4 -0.20000000298023
v -1 2 -0.20000000298023
v -1 4 -0.20000000298023
v 0 4 0
v 0 2 0
v 0 2 -0.20000000298023
v 0 4 -0.20000000298023
v -0.89999997615814 4 0
v -0.89999997615814 2 0
v -0.89999997615814 2 -0.20000000298023
v -0.89999997615814 4 -0.20000000298023
v 0.89999997615814 4 -0.20000000298023
v 0.89999997615814 2 -0.20000000298023
v 0.89999997615814 2 0
v 0.89999997615814 4 0
v -0.98000001907349 2 -0.05000000074506
v -0.98000001907349 2 -0.15000000596046
v -0.9200000166893 2 -0.05000000074506
v -0.9200000166893 2 -0.15000000596046
v 0.98000001907349 2 -0.05000000074506
v 0.98000001907349 2 -0.15000000596046
v 0.9200000166893 2 -0.15000000596046
v 0.9200000166893 2 -0.05000000074506
v -0.98000001907349 0 -0.05000000074506
v -0.98000001907349 0 -0.15000000596046
v -0.9200000166893 0 -0.05000000074506
v -0.9200000166893 0 -0.15000000596046
v 0.98000001907349 0 -0.05000000074506
v 0.98000001907349 0 -0.15000000596046
v 0.9200000166893 0 -0.15000000596046
v 0.9200000166893 0 -0.05000000074506
v -0.98000001907349 0.20000000298023 -0.05000000074506
v -0.98000001907349 0.20000000298023 -0.15000000596046
v -0.9200000166893 0.20000000298023 -0.15000000596046
v -0.9200000166893 0.20000000298023 -0.05000000074506
v 0.9200000166893 0.20000000298023 -0.05000000074506
v 0.9200000166893 0.20000000298023 -0.15000000596046
v 0.98000001907349 0.20000000298023 -0.15000000596046
v 0.98000001907349 0.20000000298023 -0.05000000074506
v -1.01999998092651 0 -0.02999999932945
v -1.01999998092651 0 -0.17000000178814
v -0.87999999523163 0 -0.02999999932945
v -0.87999999523163 0 -0.17000000178814
v 1.01999998092651 0 -0.02999999932945
v 1.01999998092651 0 -0.17000000178814
v 0.87999999523163 0 -0.17000000178814
v 0.87999999523163 0 -0.02999999932945
v -1 0.20000000298023 -0.03999999910593
v -1 0.20000000298023 -0.15999999642372
v -0.87999999523163 0.18999999761581 -0.02999999932945
v -1.01999998092651 0.18999999761581 -0.02999999932945
v -0.89999997615814 0.20000000298023 -0.15999999642372
v -1.01999998092651 0.18999999761581 -0.17000000178814
v -0.89999997615814 0.20000000298023 -0.03999999910593
v -0.87999999523163 0.18999999761581 -0.17000000178814
v 0.89999997615814 0.20000000298023 -0.03999999910593
v 0.89999997615814 0.20000000298023 -0.15999999642372
v 1.01999998092651 0.18999999761581 -0.02999999932945
v 0.87999999523163 0.18999999761581 -0.02999999932945
v 1 0.20000000298023 -0.15999999642372
v 0.87999999523163 0.18999999761581 -0.17000000178814
v 1 0.20000000298023 -0.03999999910593
v 1.01999998092651 0.18999999761581 -0.17000000178814
v -0.89999997615814 2.09999990463257 0
v -0.89999997615814 3.90000009536743 0
v 0.89999997615814 2.09999990463257 0
v 0.89999997615814 3.90000009536743 0
v 0 3.90000009536743 0
v 0 2.09999990463257 0
v -0.86170214414597 3.90000009536743 0
v -0.86170214414597 2.09999990463257 0
v 0.86170214414597 2.09999990463257 0
v 0.86170214414597 3.90000009536743 0
v 0.89999997615814 2.09999990463257 -0.20000000298023
v 0.89999997615814 3.90000009536743 -0.20000000298023
v -0.89999997615814 2.09999990463257 -0.20000000298023
v -0.89999997615814 3.90000009536743 -0.20000000298023
v 0 2.09999990463257 -0.20000000298023
v 0 3.90000009536743 -0.20000000298023
v -0.86170214414597 2.09999990463257 -0.20000000298023
v -0.86170214414597 3.90000009536743 -0.20000000298023
v 0.86170214414597 3.90000009536743 -0.20000000298023
v 0.86170214414597 2.09999990463257 -0.20000000298023
v -0.89999997615814 2.09999990463257 -0.03999999910593
v -0.89999997615814 3.90000009536743 -0.03999999910593
v 0.89999997615814 2.09999990463257 -0.03999999910593
v 0.89999997615814 3.90000009536743 -0.03999999910593
v 0 3.90000009536743 -0.03999999910593
v 0 2.09999990463257 -0.03999999910593
v -0.86170214414597 3.90000009536743 -0.03999999910593
v -0.86170214414597 2.09999990463257 -0.03999999910593
v 0.86170214414597 2.09999990463257 -0.03999999910593
v 0.86170214414597 3.90000009536743 -0.03999999910593
v 0.89999997615814 2.09999990463257 -0.15999999642372
v 0.89999997615814 3.90000009536743 -0.15999999642372
v -0.89999997615814 2.09999990463257 -0.15999999642372
v -0.89999997615814 3.90000009536743 -0.15999999642372
v 0 2.09999990463257 -0.15999999642372
v 0 3.90000009536743 -0.15999999642372
v -0.86170214414597 2.09999990463257 -0.15999999642372
v -0.86170214414597 3.90000009536743 -0.15999999642372
v 0.86170214414597 3.90000009536743 -0.15999999642372
v 0.86170214414597 2.09999990463257 -0.15999999642372
# 108 vertices

vn 0 0 1
vn 1 0 0
vn 0 0 -1
vn -1 0 0
vn 0 1 0
vn 0 -1 0
vn -0.44721412658691 0.89442694187164 0
vn 0 0.70710676908493 -0.70710676908493
vn 0.44721412658691 0.89442694187164 0
vn 0 0.707106590271 0.70710694789886
# 10 normals

vt 0.00001379812966 0.49203538894653 0
vt 0.00004548354991 0.49736166000366 0
vt 0.7338707447052 0.49531626701355 0
vt 0.73384565114975 0.48999071121216 0
vt 0.81541210412979 0.42831361293793 0
vt 0.00001379812966 0.42898797988892 0
vt 0.00011405241094 0.4846054315567 0
vt 0.8155215382576 0.48392105102539 0
vt 0 0.74973160028458 0
vt 0.00003188893606 0.75505757331848 0
vt 0.73385864496231 0.75299942493439 0
vt 0.733831346035 0.74768477678299 0
vt 0.81541258096695 0.36663699150085 0
vt 0.00005799161227 0.36731064319611 0
vt 0.00015670082939 0.42292833328247 0
vt 0.8155215382576 0.42224991321564 0
vt 0.00005799161227 0.36023199558258 0
vt 0.0204376783222 0.36028754711151 0
vt 0.02073387429118 0.30467677116394 0
vt 0.0003541817423 0.30462098121643 0
vt 0.93435978889465 0.36912488937378 0
vt 0.94660174846649 0.36912941932678 0
vt 0.94661128520966 0.34131872653961 0
vt 0.93436998128891 0.34131228923798 0
vt 0.00076389539754 0.61716800928116 0
vt 0.00148285052273 0.73697471618652 0
vt 0.73530805110931 0.73492807149887 0
vt 0.73459732532501 0.61512213945389 0
vt 0.00075361330528 0.87486582994461 0
vt 0.00147447898053 0.99467658996582 0
vt 0.73530721664429 0.99262171983719 0
vt 0.73458248376846 0.87281334400177 0
vt 0.20388813316822 0.36074709892273 0
vt 0.38735246658325 0.36119556427002 0
vt 0.38764873147011 0.30558490753174 0
vt 0.20418332517147 0.30512607097626 0
vt 0.61977362632751 0.36073839664459 0
vt 0.80323392152786 0.36118793487549 0
vt 0.80353009700775 0.30557501316071 0
vt 0.62006986141205 0.30512571334839 0
vt 0.43631491065025 0.36028921604156 0
vt 0.43660870194435 0.30467653274536 0
vt 0.00151402421761 0.74229949712753 0
vt 0.73534888029099 0.74025368690491 0
vt 0.00150689540897 0.99999994039536 0
vt 0.73534888029099 0.99794328212738 0
vt 0.40772476792336 0.3612517118454 0
vt 0.40803480148315 0.30563032627106 0
vt 0.93432718515396 0.47170960903168 0
vt 0.94656383991241 0.4717184305191 0
vt 0.94659459590912 0.4439138174057 0
vt 0.93435794115067 0.44390487670898 0
vt 0.41593018174171 0.36023366451263 0
vt 0.42008128762245 0.34634947776794 0
vt 0.42022770643234 0.31853795051575 0
vt 0.41622373461723 0.30462098121643 0
vt 0.43245896697044 0.31857120990753 0
vt 0.43231135606766 0.3463728427887 0
vt 0.80738240480423 0.34729325771332 0
vt 0.80753087997437 0.31949186325073 0
vt 0.81976109743118 0.31951510906219 0
vt 0.82391715049744 0.30562031269073 0
vt 0.81961345672607 0.34732663631439 0
vt 0.82362174987793 0.36124300956726 0
vt 0.00003493718759 0.19396829605103 0
vt 0.73390901088715 0.19537174701691 0
vt 0.73401743173599 0.16757094860077 0
vt 0.0001494683529 0.16615748405457 0
vt 0.93719846010208 0.4993337392807 0
vt 0.93845599889755 0.99971127510071 0
vt 0.95067882537842 0.99969750642776 0
vt 0.94944381713867 0.49930429458618 0
vt 0.00013271978241 0.22857141494751 0
vt 0.73390901088715 0.22998201847076 0
vt 0.73401743173599 0.20217764377594 0
vt 0.00024870541529 0.20075702667236 0
vt 0.91706526279449 0.49930429458618 0
vt 0.91326707601547 0.99981242418289 0
vt 0.92549097537994 0.99985319375992 0
vt 0.92930316925049 0.49934756755829 0
vt 0.00013528653653 0.26318216323853 0
vt 0.73390901088715 0.26460266113281 0
vt 0.73401743173599 0.2367981672287 0
vt 0.00025212569744 0.23536729812622 0
vt 0.89313519001007 0.49930429458618 0
vt 0.88932609558105 0.99988424777985 0
vt 0.90154784917831 0.99992489814758 0
vt 0.90537172555923 0.49934768676758 0
vt 0.00005799161227 0.29779946804047 0
vt 0.73390960693359 0.29923570156097 0
vt 0.73401743173599 0.27143406867981 0
vt 0.0001753771212 0.26998794078827 0
vt 0.00041275576223 0.00834500789642 0
vt 0.73442620038986 0.01096105575562 0
vt 0.73448586463928 0.0026261806488 0
vt 0.00047670520144 0 0
vt 0.80045247077942 0.6581888794899 0
vt 0.80035227537155 0.6053581237793 0
vt 0.74326241016388 0.60541182756424 0
vt 0.74338060617447 0.65823978185654 0
vt 0.95455503463745 0.43295586109161 0
vt 0.95476257801056 0.38012337684631 0
vt 0.9262118935585 0.38007974624634 0
vt 0.92602330446243 0.43290269374847 0
vt 0.80045247077942 0.7164563536644 0
vt 0.80033385753632 0.66362506151199 0
vt 0.74324429035187 0.66368800401688 0
vt 0.74338090419769 0.71651583909988 0
vt 0.91790306568146 0.43296480178833 0
vt 0.91812789440155 0.38012337684631 0
vt 0.8895810842514 0.38007974624634 0
vt 0.8893735408783 0.4329047203064 0
vt 0.88143068552017 0.43293082714081 0
vt 0.88136565685272 0.38009786605835 0
vt 0.82427752017975 0.38013601303101 0
vt 0.82436013221741 0.43296480178833 0
vt 0.91785305738449 0.49125123023987 0
vt 0.91812789440155 0.43841016292572 0
vt 0.88958203792572 0.43835008144379 0
vt 0.88932609558105 0.49118173122406 0
vt 0.80045247077942 0.59992921352386 0
vt 0.80036926269531 0.54709631204605 0
vt 0.74328166246414 0.54714298248291 0
vt 0.74338287115097 0.59997284412384 0
vt 0.91797029972076 0.37469446659088 0
vt 0.91812789440155 0.32186460494995 0
vt 0.88957589864731 0.32183015346527 0
vt 0.88943713903427 0.37465059757233 0
vt 0.7527174949646 0.50588703155518 0
vt 0.74857807159424 0.50301599502563 0
vt 0.74857264757156 0.53793501853943 0
vt 0.75277012586594 0.53508198261261 0
vt 0.92623847723007 0.33575034141541 0
vt 0.92620891332626 0.37468492984772 0
vt 0.7693504691124 0.5380272269249 0
vt 0.76513242721558 0.53514540195465 0
vt 0.95476257801056 0.33575797080994 0
vt 0.76912027597427 0.5030762553215 0
vt 0.76493859291077 0.50594520568848 0
vt 0.95475280284882 0.37469446659088 0
vt 0.79177045822144 0.50587141513824 0
vt 0.78762167692184 0.50301206111908 0
vt 0.78762775659561 0.53793305158615 0
vt 0.79183173179626 0.53507149219513 0
vt 0.92622995376587 0.43834114074707 0
vt 0.9261594414711 0.47726404666901 0
vt 0.80841010808945 0.53802478313446 0
vt 0.80420821905136 0.5351374745369 0
vt 0.95476257801056 0.4383590221405 0
vt 0.80817031860352 0.50306469202042 0
vt 0.80400568246841 0.50593131780624 0
vt 0.95471149682999 0.47728455066681 0
vt 0.74328166246414 0.54146033525467 0
vt 0.74343293905258 0.499396443367 0
vt 0.77445638179779 0.54171103239059 0
vt 0.7744192481041 0.49959361553192 0
vt 0.78235179185867 0.54145932197571 0
vt 0.78248912096024 0.49939429759979 0
vt 0.81352269649506 0.54171103239059 0
vt 0.81349414587021 0.49958395957947 0
vt 0.00003488827497 0.14686584472656 1
vt 0.04079437255859 0.16075134277344 1
vt 0.7744140625 0.16078186035156 1
vt 0.81517028808594 0.14688110351562 1
vt 0.88140869140625 0.72190856933594 1
vt 0.84062194824219 0.73582458496094 1
vt 0.84062194824219 0.74114990234375 1
vt 0.88140869140625 0.73582458496094 1
vt 0.79193115234375 0.73583221435547 1
vt 0.83270263671875 0.74115753173828 1
vt 0.83270263671875 0.73581695556641 1
vt 0.79193115234375 0.72190856933594 1
vt 0.88140869140625 0.86092376708984 1
vt 0.84062194824219 0.86092376708984 1
vt 0.84062194824219 0.98070526123047 1
vt 0.88140869140625 0.98603582382202 1
vt 0.79196166992188 0.98601603507996 1
vt 0.83273315429688 0.98068714141846 1
vt 0.83273315429688 0.86091232299805 1
vt 0.79196166992188 0.86091995239258 1
vt 0.84062194824219 0.98603582382202 1
vt 0.88140869140625 0.99992489814758 1
vt 0.81698608398438 0.10289001464844 1
vt 0.77616882324219 0.08900451660156 1
vt 0.04147529602051 0.08900451660156 1
vt 0.00065638124943 0.10289001464844 1
vt 0.79197692871094 0.99991953372955 1
vt 0.83273315429688 0.98601603507996 1
vt 0.00003488827497 0.12757873535156 1
vt 0.04081535339355 0.1414794921875 1
vt 0.77476501464844 0.1414794921875 1
vt 0.81559753417969 0.12757873535156 1
vt 0.78401184082031 0.72190856933594 1
vt 0.74320983886719 0.73581695556641 1
vt 0.74320983886719 0.74114990234375 1
vt 0.78401184082031 0.73581695556641 1
vt 0.84065246582031 0.4522705078125 1
vt 0.88140869140625 0.45758056640625 1
vt 0.88140869140625 0.4522705078125 1
vt 0.84065246582031 0.43836975097656 1
vt 0.78401184082031 0.86095809936523 1
vt 0.74325561523438 0.86095809936523 1
vt 0.74325561523438 0.98077201843262 1
vt 0.78401184082031 0.98609662055969 1
vt 0.84065246582031 0.70262145996094 1
vt 0.88140869140625 0.69728851318359 1
vt 0.88140869140625 0.57743835449219 1
vt 0.84065246582031 0.57743835449219 1
vt 0.74325561523438 0.9860999584198 1
vt 0.78404235839844 0.99996948242188 1
vt 0.81559753417969 0.1221923828125 1
vt 0.77481079101562 0.1082763671875 1
vt 0.04140472412109 0.1082763671875 1
vt 0.00065638124943 0.1221923828125 1
vt 0.84065246582031 0.71652984619141 1
vt 0.88140869140625 0.70262145996094 1
vt 0.00069501117105 0.05431628227234 0
vt 0.00074907252565 0.0654354095459 0
vt 0.73448586463928 0.06378304958344 0
vt 0.73444032669067 0.05265367031097 0
vt 0.97487902641296 0.74938595294952 0
vt 0.95858669281006 0.74939012527466 0
vt 0.95857429504395 0.75472259521484 0
vt 0.97488963603973 0.75470340251923 0
vt 0.95857840776443 0.49906587600708 0
vt 0.97489726543427 0.49905467033386 0
vt 0.9748871922493 0.49372792243958 0
vt 0.95859086513519 0.49373936653137 0
vt 0.97510093450546 0.87453889846802 0
vt 0.95880806446075 0.8745584487915 0
vt 0.95901954174042 0.99438607692718 0
vt 0.97533482313156 0.99436688423157 0
vt 0.95901608467102 0.7386776804924 0
vt 0.9753350019455 0.73866277933121 0
vt 0.97510486841202 0.61886042356491 0
vt 0.95880848169327 0.61887186765671 0
vt 0.95902997255325 0.99971127510071 0
vt 0.97534519433975 0.99969208240509 0
vt 0.73448586463928 0.02747666835785 0
vt 0.73444026708603 0.01634633541107 0
vt 0.00076702673687 0.01799130439758 0
vt 0.00082058942644 0.02911150455475 0
vt 0.95902627706528 0.74400073289871 0
vt 0.97534519433975 0.74398571252823 0
vt 0.00068749143975 0.03614938259125 0
vt 0.00074123567902 0.04726839065552 0
vt 0.73448586463928 0.04562592506409 0
vt 0.73444032669067 0.03449678421021 0
vt 0.98368465900421 0.99971210956573 0
vt 1 0.99969327449799 0
vt 0.99998986721039 0.99436777830124 0
vt 0.9836745262146 0.99438655376434 0
vt 0.99998980760574 0.73866438865662 0
vt 0.98366963863373 0.73867654800415 0
vt 0.98367989063263 0.74400073289871 0
vt 1 0.74398851394653 0
vt 0.98346894979477 0.87455487251282 0
vt 0.9997615814209 0.8745356798172 0
vt 0.99955588579178 0.75470376014709 0
vt 0.98324060440063 0.75472265481949 0
vt 0.999596118927 0.49907374382019 0
vt 0.98327577114105 0.49908876419067 0
vt 0.98348397016525 0.61888259649277 0
vt 0.99978160858154 0.61886930465698 0
vt 0.99954551458359 0.74938595294952 0
vt 0.98325335979462 0.74938976764679 0
vt 0.73448586463928 0.08194935321808 0
vt 0.73444032669067 0.07082068920135 0
vt 0.00065647659358 0.0724835395813 0
vt 0.00071053829743 0.0836021900177 0
vt 0.99958574771881 0.49375033378601 0
vt 0.98328822851181 0.49376177787781 0
# 272 texture coordinates

o obstacle2
usemtl obst2
f 89/4/1 96/3/1 95/2/1 90/1/1
f 5/8/2 6/7/2 4/6/2 3/5/2
f 99/12/3 108/11/3 107/10/3 100/9/3
f 1/16/4 2/15/4 8/14/4 7/13/4
f 2/20/5 13/19/5 16/18/5 8/17/5
f 30/24/6 32/23/6 31/22/6 29/21/6
f 94/28/1 97/27/1 98/26/1 93/25/1
f 103/32/3 105/31/3 106/30/3 104/29/3
f 9/36/5 20/35/5 17/34/5 12/33/5
f 11/40/6 18/39/6 19/38/6 10/37/6
f 96/3/1 94/28/1 93/25/1 95/2/1
f 108/11/3 103/32/3 104/29/3 107/10/3
f 13/19/5 9/36/5 12/33/5 16/18/5
f 15/42/6 11/40/6 10/37/6 14/41/6
f 97/27/1 91/44/1 92/43/1 98/26/1
f 105/31/3 101/46/3 102/45/3 106/30/3
f 20/35/5 4/48/5 6/47/5 17/34/5
f 35/52/6 34/51/6 33/50/6 36/49/6
f 7/56/6 22/55/6 21/54/6 1/53/6
f 15/42/6 24/57/6 22/55/6 7/56/6
f 14/41/6 23/58/6 24/57/6 15/42/6
f 1/53/6 21/54/6 23/58/6 14/41/6
f 18/39/6 27/60/6 28/59/6 19/38/6
f 5/62/6 26/61/6 27/60/6 18/39/6
f 3/64/6 25/63/6 26/61/6 5/62/6
f 19/38/6 28/59/6 25/63/6 3/64/6
f 22/68/4 38/67/4 37/66/4 21/65/4
f 24/72/3 39/71/3 38/70/3 22/69/3
f 23/76/2 40/75/2 39/74/2 24/73/2
f 21/80/1 37/79/1 40/78/1 23/77/1
f 27/84/4 42/83/4 41/82/4 28/81/4
f 26/88/3 43/87/3 42/86/3 27/85/3
f 25/92/2 44/91/2 43/90/2 26/89/2
f 28/96/1 41/95/1 44/94/1 25/93/1
f 58/100/4 46/99/4 45/98/4 56/97/4
f 60/104/3 48/103/3 46/102/3 58/101/3
f 55/108/2 47/107/2 48/106/2 60/105/2
f 56/112/1 45/111/1 47/110/1 55/109/1
f 66/116/4 51/115/4 52/114/4 64/113/4
f 68/120/3 50/119/3 51/118/3 66/117/3
f 63/124/2 49/123/2 50/122/2 68/121/2
f 64/128/1 52/127/1 49/126/1 63/125/1
f 38/132/5 54/131/5 53/130/5 37/129/5
f 29/21/6 45/134/6 46/133/6 30/24/6
f 39/136/5 57/135/5 54/131/5 38/132/5
f 30/24/6 46/133/6 48/137/6 32/23/6
f 40/139/5 59/138/5 57/135/5 39/136/5
f 32/23/6 48/137/6 47/140/6 31/22/6
f 37/129/5 53/130/5 59/138/5 40/139/5
f 31/22/6 47/140/6 45/134/6 29/21/6
f 42/144/5 62/143/5 61/142/5 41/141/5
f 36/49/6 52/146/6 51/145/6 35/52/6
f 43/148/5 65/147/5 62/143/5 42/144/5
f 35/52/6 51/145/6 50/149/6 34/51/6
f 44/151/5 67/150/5 65/147/5 43/148/5
f 34/51/6 50/149/6 49/152/6 33/50/6
f 41/141/5 61/142/5 67/150/5 44/151/5
f 33/50/6 49/152/6 52/146/6 36/49/6
f 56/154/7 53/130/7 54/131/7 58/153/7
f 58/153/8 54/131/8 57/135/8 60/155/8
f 60/155/9 57/135/9 59/138/9 55/156/9
f 55/156/10 59/138/10 53/130/10 56/154/10
f 64/158/7 61/142/7 62/143/7 66/157/7
f 66/157/8 62/143/8 65/147/8 68/159/8
f 68/159/9 65/147/9 67/150/9 63/160/9
f 63/160/10 67/150/10 61/142/10 64/158/10
f 1/164/1 69/163/1 70/162/1 2/161/1
f 14/168/1 76/167/1 69/166/1 1/165/1
f 2/172/1 70/171/1 75/170/1 13/169/1
f 19/176/1 77/175/1 74/174/1 10/173/1
f 9/180/1 73/179/1 78/178/1 20/177/1
f 10/173/1 74/174/1 76/167/1 14/168/1
f 13/169/1 75/170/1 73/179/1 9/180/1
f 3/182/1 71/181/1 77/175/1 19/176/1
f 4/186/1 72/185/1 71/184/1 3/183/1
f 20/177/1 78/178/1 72/188/1 4/187/1
f 5/192/3 79/191/3 80/190/3 6/189/3
f 18/196/3 88/195/3 79/194/3 5/193/3
f 6/200/3 80/199/3 87/198/3 17/197/3
f 15/204/3 85/203/3 83/202/3 11/201/3
f 12/208/3 84/207/3 86/206/3 16/205/3
f 11/201/3 83/202/3 88/195/3 18/196/3
f 17/197/3 87/198/3 84/207/3 12/208/3
f 7/210/3 81/209/3 85/203/3 15/204/3
f 8/214/3 82/213/3 81/212/3 7/211/3
f 16/205/3 86/206/3 82/216/3 8/215/3
f 69/220/2 89/219/2 90/218/2 70/217/2
f 76/224/5 96/223/5 89/222/5 69/221/5
f 70/228/6 90/227/6 95/226/6 75/225/6
f 77/232/5 97/231/5 94/230/5 74/229/5
f 73/236/6 93/235/6 98/234/6 78/233/6
f 74/229/5 94/230/5 96/223/5 76/224/5
f 75/225/6 95/226/6 93/235/6 73/236/6
f 71/238/5 91/237/5 97/231/5 77/232/5
f 72/242/4 92/241/4 91/240/4 71/239/4
f 78/233/6 98/234/6 92/244/6 72/243/6
f 79/248/4 99/247/4 100/246/4 80/245/4
f 88/252/5 108/251/5 99/250/5 79/249/5
f 80/256/6 100/255/6 107/254/6 87/253/6
f 85/260/5 105/259/5 103/258/5 83/257/5
f 84/264/6 104/263/6 106/262/6 86/261/6
f 83/257/5 103/258/5 108/251/5 88/252/5
f 87/253/6 107/254/6 104/263/6 84/264/6
f 81/266/5 101/265/5 105/259/5 85/260/5
f 82/270/2 102/269/2 101/268/2 81/267/2
f 86/261/6 106/262/6 102/272/6 82/271/6

