# WaveFront *.obj file (generated by CINEMA 4D)

mtllib ./obstacle1WallColliderShape.mtl

v -1 2 0
v 1 2 0
v 1 2 -5
v -1 2 -5
v -1 0 2
v -1 0 -7
v 1 0 2
v 1 0 -7
v -1 1.89999997615814 -0.04142135754228
v 1 1.89999997615814 -0.04142135754228
v 1 1.89999997615814 -4.95857858657837
v -1 1.89999997615814 -4.95857858657837
v -1 0 -6.8585786819458
v 1 0 -6.8585786819458
v 1 -0 1.8585786819458
v -1 0 1.8585786819458
v -1 0 -0.55504620075226
v 1 0 -0.55504620075226
v 1 0 -4.44495391845703
v -1 0 -4.44495391845703
# 20 vertices

vn -0 -1 -0
vn 0 -1 0
vn 0 0 0
vn 0 -1 0
vn -0 -1 -0
vn -0 -1 -0
vn 0 1 0
vn 0 0.70710682868958 -0.70710676908493
vn 0 0.70710682868958 0.70710676908493
vn 0 0.70710682868958 0.70710676908493
vn 1 0 0
vn -1 0 0
vn -1 0 0
vn 0 0.70710682868958 0.70710676908493
# 14 normals

vt 0.82235062122345 0.99680817127228 0
vt 0.29915136098862 0.99664640426636 0
vt 0.29921722412109 0.78736913204193 0
vt 0.82241654396057 0.78753024339676 0
vt 0.01381111424416 0.99655938148499 0
vt 0.0138750737533 0.78728157281876 0
vt 0.28904160857201 0.21561253070831 0
vt 0.28858479857445 0.42488431930542 0
vt 0.00324129126966 0.42426788806915 0
vt 0.00369847775437 0.21498215198517 0
vt 0 0 0
vt 1 0 0
vt 1 1 0
vt 0 1 0
# 14 texture coordinates

o obstacle1WallColliderShape
usemtl default
f 20/3/2 19/2/2 18/1/1
f 20/3/2 13/6/4 14/5/2
f 18/9/1 15/8/6 16/7/5
f 11/13/7 12/12/7 9/11/7
f 12/13/8 11/12/8 14/11/8
f 10/13/9 9/12/10 16/11/9
f 18/1/11 19/2/11 11/2/11
f 20/3/12 17/4/12 9/4/12
f 10/14/11 15/13/11 18/12/11
f 13/14/13 20/13/12 12/12/12
f 11/14/11 19/13/11 14/12/11
f 17/14/12 16/13/13 9/12/12
f 17/4/2 20/3/2 18/1/1
f 19/2/2 20/3/2 14/5/2
f 17/10/2 18/9/1 16/7/5
f 10/14/7 11/13/7 9/11/7
f 13/14/8 12/13/8 14/11/8
f 15/14/14 10/13/9 16/11/9
f 10/1/11 18/1/11 11/2/11
f 12/3/12 20/3/12 9/4/12

