# WaveFront *.obj file (generated by CINEMA 4D)

mtllib ./obstacle1.mtl

v -1 0 0
v -1 2 0
v 1 0 0
v 1 2 0
v 1 0 -5
v 1 2 -5
v -1 0 -5
v -1 2 -5
v -1 0 2
v -1 0 -7
v 1 0 2
v 1 0 -7
v 0.80000001192093 0 2
v 0.80000001192093 2 0
v 0.80000001192093 2 -5
v 0.80000001192093 0 -7
v 1.60000002384186 0 -5
v 1.60000002384186 0 0
v -0.81999999284744 0 2
v -0.81999999284744 2 0
v -0.81999999284744 2 -5
v -0.81999999284744 0 -7
v -1.63999998569489 0 -5
v -1.63999998569489 0 0
v 1 0.18000000715256 0
v 1 1.82000005245209 -0.07455844432116
v 1 0.18000000715256 -5
v 1 1.82000005245209 -4.92544174194336
v 1 0.18000000715256 1.56544160842896
v 1 0.18000000715256 -6.56544160842896
v -1 0.18000000715256 0
v -1 1.82000005245209 -0.07455844432116
v -1 0.18000000715256 -5
v -1 1.82000005245209 -4.92544174194336
v -1 0.18000000715256 1.56544160842896
v -1 0.18000000715256 -6.56544160842896
v 0.93000000715256 0.18000000715256 0
v 0.93000000715256 1.82000005245209 -0.07455844432116
v 0.93000000715256 0.18000000715256 -5
v 0.93000000715256 1.82000005245209 -4.92544174194336
v 0.93000000715256 0.18000000715256 1.56544160842896
v 0.93000000715256 0.18000000715256 -6.56544160842896
v -0.93000000715256 0.18000000715256 0
v -0.93000000715256 1.82000005245209 -0.07455844432116
v -0.93000000715256 0.18000000715256 -5
v -0.93000000715256 1.82000005245209 -4.92544174194336
v -0.93000000715256 0.18000000715256 1.56544160842896
v -0.93000000715256 0.18000000715256 -6.56544160842896
v -0.00999999977648 0 2
v -0.00999999977648 2 0
v -0.00999999977648 2 -5
v -0.00999999977648 0 -7
v 0.15199999511242 2 0
v 0.15199999511242 0 2
v 0.15199999511242 2 -5
v 0.15199999511242 0 -7
v -0.17200000584126 2 0
v -0.17200000584126 2 -5
v -0.17200000584126 0 -7
v -0.17200000584126 0 2
# 60 vertices

vn 1 0 0
vn 0 0 0
vn 0 0.70710676908493 -0.70710676908493
vn -1 0 0
vn 0 1 0
vn 0 0.70710676908493 0.70710676908493
vn 0 -0.70710670948029 0.70710682868958
vn 0 -1 0
vn 0 -0.70710676908493 -0.70710676908493
# 9 normals

vt 0.68241882324219 0.6029052734375 1
vt 0.85404968261719 0.43130493164062 1
vt 0.69021606445312 0.43130493164062 1
vt 0.69028025865555 0.43125188350677 0
vt 0.16704177856445 0.43130493164062 1
vt 0.17484283447266 0.6029052734375 1
vt 0.00319817499258 0.97562837600708 0
vt 0.00319184944965 0.99655616283417 0
vt 0.29915136098862 0.99664640426636 0
vt 0.29915642738342 0.97571915388107 0
vt 0.1670036315918 0.60929870605469 1
vt 0.17480087280273 0.7808952331543 1
vt 0.68240356445312 0.7808952331543 1
vt 0.69020080566406 0.60929870605469 1
vt 0.82235062122345 0.99680817127228 0
vt 0.82235568761826 0.97588115930557 0
vt 0.29961398243904 0.23447501659393 0
vt 0.29966098070145 0.21563601493835 0
vt 0.00369847775437 0.21498215198517 0
vt 0.00365744857118 0.23382079601288 0
vt 0.8223968744278 0.80636751651764 0
vt 0.82241654396057 0.78753024339676 0
vt 0.29921722412109 0.78736913204193 0
vt 0.2992125749588 0.80620670318604 0
vt 0.00324124097824 0.43130493164062 1
vt 0.17485857009888 0.60286903381348 0
vt 0.00324129126966 0.42426788806915 0
vt 0.29920417070389 0.42490720748901 0
vt 0.2992482483387 0.4039933681488 0
vt 0.00328699988313 0.40333938598633 0
vt 0.85404968261719 0.60928344726562 1
vt 0.69027072191238 0.60925626754761 0
vt 0.00325573864393 0.78727829456329 0
vt 0.00324993208051 0.8061158657074 0
vt 0.00319182872772 0.60928344726562 1
vt 0.17481917142868 0.78088343143463 0
vt 0.2993928194046 0.33618009090424 0
vt 0.29943445324898 0.31922674179077 0
vt 0.00347259244882 0.31858742237091 0
vt 0.0034355330281 0.3355405330658 0
vt 0.8223751783371 0.90807574987412 0
vt 0.29918345808983 0.90791296958923 0
vt 0.00321886083111 0.90782201290131 0
vt 0.73562622070312 0.16452026367188 1
vt 0.73562622070312 0.18336486816406 1
vt 0.89942932128906 0.183349609375 1
vt 0.94491577148438 0.16452026367188 1
vt 0.8792724609375 0.30708312988281 1
vt 0.86042785644531 0.3525390625 1
vt 0.86042785644531 0.59510040283203 1
vt 0.8792724609375 0.6029052734375 1
vt 0.21249008178711 0.16453552246094 1
vt 0.21249008178711 0.18336486816406 1
vt 0.82917785644531 0.39547729492188 1
vt 0.8212890625 0.37666320800781 1
vt 0.31376647949219 0.37872314453125 1
vt 0.30604553222656 0.3975830078125 1
vt 0.60202026367188 0.34501647949219 1
vt 0.59420776367188 0.326171875 1
vt 0.35163879394531 0.326171875 1
vt 0.30617523193359 0.34501647949219 1
vt 0.00324124097824 0.16452026367188 1
vt 0.0487060546875 0.18336486816406 1
vt 0.21240234375 0.18975830078125 1
vt 0.21240234375 0.20860290527344 1
vt 0.73530578613281 0.20860290527344 1
vt 0.73530578613281 0.18975830078125 1
vt 0.82917785644531 0.42491149902344 1
vt 0.82144165039062 0.40605163574219 1
vt 0.31391906738281 0.40396118164062 1
vt 0.30603790283203 0.42277526855469 1
vt 0.89901733398438 0.20860290527344 1
vt 0.94447326660156 0.18974304199219 1
vt 0.8792724609375 0.60928344726562 1
vt 0.86044311523438 0.65475463867188 1
vt 0.86042785644531 0.89742088317871 1
vt 0.8792724609375 0.90522384643555 1
vt 0.60202026367188 0.3702392578125 1
vt 0.59420776367188 0.35140991210938 1
vt 0.35151672363281 0.3514404296875 1
vt 0.30604553222656 0.37028503417969 1
vt 0.00324124097824 0.18974304199219 1
vt 0.04868698120117 0.20860290527344 1
vt 0.1678581237793 0.11167907714844 1
vt 0.16785049438477 0.10435485839844 1
vt 0.00410413742065 0.10450744628906 1
vt 0.00411105155945 0.11183166503906 1
vt 0.99679565429688 0.14006042480469 1
vt 0.99678039550781 0.13273620605469 1
vt 0.75399780273438 0.13327026367188 1
vt 0.75401306152344 0.14059448242188 1
vt 0.69100952148438 0.11117553710938 1
vt 0.69099426269531 0.10385131835938 1
vt 0.24639129638672 0.13438415527344 1
vt 0.24640655517578 0.14170837402344 1
vt 0.00377106666565 0.13491821289062 1
vt 0.00377076864243 0.14224243164062 1
vt 0.85479736328125 0.11102294921875 1
vt 0.85479736328125 0.10368347167969 1
vt 0.1675910949707 0.11888122558594 1
vt 0.16759490966797 0.12620544433594 1
vt 0.69088745117188 0.12570190429688 1
vt 0.69088745117188 0.11837768554688 1
vt 0.24620056152344 0.15028381347656 1
vt 0.2462158203125 0.15760803222656 1
vt 0.75405883789062 0.156494140625 1
vt 0.75404357910156 0.14918518066406 1
vt 0.85479736328125 0.12554931640625 1
vt 0.85479736328125 0.11820983886719 1
vt 0.00324660539627 0.15081787109375 1
vt 0.00324124097824 0.15814208984375 1
vt 0.99679565429688 0.15597534179688 1
vt 0.99678039550781 0.14863586425781 1
vt 0.00377076864243 0.11903381347656 1
vt 0.00377780199051 0.12635803222656 1
vt 0.29946878552437 0.30227375030518 0
vt 0.00350953824818 0.30163419246674 0
vt 0.82238376140594 0.89112544059753 0
vt 0.82237738370895 0.8741729259491 0
vt 0.29919311404228 0.87401223182678 0
vt 0.29918453097343 0.89096248149872 0
vt 0.00322917103767 0.87392127513886 0
vt 0.00322403083555 0.89087164402008 0
# 123 texture coordinates

o obstacle1
usemtl obst1
f 39/3/1 42/2/1 40/1/1
f 39/3/1 40/1/1 38/6/1 37/5/1
f 15/10/3 6/9/3 12/8/3 16/7/3
f 43/14/4 44/13/4 46/12/4 45/11/4
f 14/16/5 4/15/5 6/9/5 15/10/5
f 20/20/6 2/19/6 9/18/6 19/17/6
f 21/24/5 8/23/5 2/22/5 20/21/5
f 38/6/1 41/25/1 37/5/1
f 14/30/6 13/29/6 11/28/6 4/27/6
f 43/14/4 47/31/4 44/13/4
f 22/34/3 10/33/3 8/23/3 21/24/3
f 46/12/4 48/35/4 45/11/4
f 53/40/6 50/39/6 49/38/6 54/37/6
f 15/10/5 55/42/5 53/41/5 14/16/5
f 16/7/3 56/43/3 55/42/3 15/10/3
f 12/47/1 30/46/1 27/45/1 5/44/1
f 6/51/1 28/50/1 30/49/1 12/48/1
f 5/44/1 27/45/1 25/53/1 3/52/1
f 4/57/1 26/56/1 28/55/1 6/54/1
f 11/61/1 29/60/1 26/59/1 4/58/1
f 3/52/1 25/53/1 29/63/1 11/62/1
f 1/67/4 31/66/4 33/65/4 7/64/4
f 8/71/4 34/70/4 32/69/4 2/68/4
f 9/73/4 35/72/4 31/66/4 1/67/4
f 2/77/4 32/76/4 35/75/4 9/74/4
f 10/81/4 36/80/4 34/79/4 8/78/4
f 7/64/4 33/65/4 36/83/4 10/82/4
f 30/87/5 42/86/5 39/85/5 27/84/5
f 28/91/7 40/90/7 42/89/7 30/88/7
f 27/84/5 39/85/5 37/93/5 25/92/5
f 26/95/8 38/94/8 40/90/8 28/91/8
f 29/97/9 41/96/9 38/94/9 26/95/9
f 25/92/5 37/93/5 41/99/5 29/98/5
f 31/103/5 43/102/5 45/101/5 33/100/5
f 34/107/8 46/106/8 44/105/8 32/104/8
f 35/109/5 47/108/5 43/102/5 31/103/5
f 32/104/9 44/105/9 47/111/9 35/110/9
f 36/113/7 48/112/7 46/106/7 34/107/7
f 33/100/5 45/101/5 48/115/5 36/114/5
f 57/117/6 20/20/6 19/17/6 60/116/6
f 51/121/5 58/120/5 57/119/5 50/118/5
f 52/123/3 59/122/3 58/120/3 51/121/3
f 54/37/6 13/29/6 14/30/6 53/40/6
f 55/42/5 51/121/5 50/118/5 53/41/5
f 56/43/3 52/123/3 51/121/3 55/42/3
f 58/120/5 21/24/5 20/21/5 57/119/5
f 59/122/3 22/34/3 21/24/3 58/120/3
f 60/116/6 49/38/6 50/39/6 57/117/6

